<svg id="Layer_1" data-name="Layer 1" xmlns="http://www.w3.org/2000/svg" viewBox="0 0 491 224">
  <defs>
    <style>
      .cls-1 {
        opacity: 0.91;
      }

      .cls-2 {
        stroke: #000;
        stroke-miterlimit: 10;
        stroke-width: 2px;
      }
    </style>
  </defs>
  <title>Artboard 2</title>
  <g class="cls-1">
    <path d="M72.71,69.28H66.56V60.54l23.3,0v8.75H83.71l0,24.6h-11Zm6.16,20.6V65.73H86v-1.2H70.4v1.2h7.15V89.88Z"/>
    <path d="M101.5,60.51h8l12.68,33.34h-10.5l-1.11-3h-10.1l-1.09,3H88.88ZM96.32,89.86l1-2.5h16.5l1,2.5h1.4L106.45,64.5h-1.9L94.92,89.86Zm9.18-24.15,7.82,20.44H97.72Zm2.27,17.79-2.26-5.85-2.24,5.86Z"/>
    <path d="M122.16,77.19a18,18,0,0,1,1.4-7.22,16.75,16.75,0,0,1,3.79-5.53,16.55,16.55,0,0,1,5.6-3.53,18.78,18.78,0,0,1,6.8-1.23,21.69,21.69,0,0,1,5.08.54,25.2,25.2,0,0,1,3.82,1.25,18,18,0,0,1,3.2,1.75l-5.24,9.25a18.28,18.28,0,0,0-1.75-1.15,17.91,17.91,0,0,0-2-.77,8.75,8.75,0,0,0-2.67-.37,7.14,7.14,0,0,0-2.85.55,7.41,7.41,0,0,0-2.28,1.5,7.18,7.18,0,0,0-1.52,2.23,6.75,6.75,0,0,0-.55,2.72,6.62,6.62,0,0,0,.58,2.73,6.87,6.87,0,0,0,1.58,2.22,7.33,7.33,0,0,0,2.35,1.5,7.67,7.67,0,0,0,2.95.55,9.52,9.52,0,0,0,2.85-.4,10.4,10.4,0,0,0,2.1-.91,7.66,7.66,0,0,0,1.75-1.3l5.25,9.25a15.13,15.13,0,0,1-3.19,2,26.9,26.9,0,0,1-3.85,1.3,19.61,19.61,0,0,1-5.15.61,19.81,19.81,0,0,1-7.2-1.27,17.06,17.06,0,0,1-5.71-3.57,16.18,16.18,0,0,1-3.75-5.52A18.49,18.49,0,0,1,122.16,77.19Zm6.3,0a12.4,12.4,0,0,1,.82-4.5A10.91,10.91,0,0,1,131.61,69a10.68,10.68,0,0,1,3.65-2.46,12.28,12.28,0,0,1,4.79-.9,14.7,14.7,0,0,1,2.33.17,10.63,10.63,0,0,1,1.73.43,6.53,6.53,0,0,1,1.45.59l.69-1.2a17.72,17.72,0,0,0-1.7-.64,16.75,16.75,0,0,0-2-.45,13.74,13.74,0,0,0-2.55-.2,13.36,13.36,0,0,0-4.87.9,12.4,12.4,0,0,0-4.1,2.58,12.6,12.6,0,0,0-3.92,9.33,13.19,13.19,0,0,0,1,5.3,12,12,0,0,0,2.83,4,12.51,12.51,0,0,0,4.2,2.57,14.4,14.4,0,0,0,5.1.9,13.79,13.79,0,0,0,2.7-.25,16.25,16.25,0,0,0,2-.56,9.58,9.58,0,0,0,1.7-.8l-.7-1.2a6.58,6.58,0,0,1-1.5.76,11.26,11.26,0,0,1-1.8.52,11.73,11.73,0,0,1-2.45.23,13,13,0,0,1-4.95-.9,11,11,0,0,1-3.73-2.44,10.91,10.91,0,0,1-2.35-3.65A12.2,12.2,0,0,1,128.46,77.19Z"/>
    <path d="M152.86,77.17a17.14,17.14,0,0,1,1.37-6.8A17.49,17.49,0,0,1,163.55,61a17,17,0,0,1,6.8-1.38,16.8,16.8,0,0,1,6.8,1.37,17.43,17.43,0,0,1,9.33,9.31,17.5,17.5,0,0,1,0,13.6,17.47,17.47,0,0,1-16.11,10.72,17.14,17.14,0,0,1-6.8-1.37A17.55,17.55,0,0,1,154.24,84,17,17,0,0,1,152.86,77.17Zm4.7,0a12.41,12.41,0,0,0,1,5,12.67,12.67,0,0,0,2.75,4.07A13,13,0,0,0,165.4,89a12.4,12.4,0,0,0,5,1,12.59,12.59,0,0,0,5-1,12.9,12.9,0,0,0,6.82-6.83,12.56,12.56,0,0,0,1-5,12.41,12.41,0,0,0-1-5,12.9,12.9,0,0,0-6.83-6.82,12.82,12.82,0,0,0-10,0,13,13,0,0,0-4.07,2.75,12.82,12.82,0,0,0-2.75,4.08A12.41,12.41,0,0,0,157.56,77.17Zm12.81,11.49a11.09,11.09,0,0,1-4.47-.9,11.61,11.61,0,0,1-6.13-6.12,11.52,11.52,0,0,1,0-9,11.7,11.7,0,0,1,6.12-6.13,11.09,11.09,0,0,1,4.47-.9,11,11,0,0,1,4.48.89A11.7,11.7,0,0,1,181,72.67a11.64,11.64,0,0,1,0,9,11.8,11.8,0,0,1-6.12,6.13A11.35,11.35,0,0,1,170.37,88.66Zm-7-11.5a6.77,6.77,0,0,0,.56,2.73,6.91,6.91,0,0,0,1.5,2.22,7.13,7.13,0,0,0,2.22,1.5,7,7,0,0,0,7.68-1.51,7.13,7.13,0,0,0,1.5-2.22,6.93,6.93,0,0,0,.54-2.73,6.71,6.71,0,0,0-.55-2.72,7,7,0,0,0-3.73-3.73,7.09,7.09,0,0,0-5.45,0,7,7,0,0,0-3.72,3.73A6.71,6.71,0,0,0,163.36,77.16Z"/>
    <path d="M147.19,105.87h-4.64v-6.6h17.57v6.59h-4.64v18.54H147.2Zm4.64,15.53V103.19h5.39v-.91H145.45v.91h5.39V121.4Z"/>
    <path d="M171.74,125a14.42,14.42,0,0,1-4.3-.6,8.92,8.92,0,0,1-3.28-1.8,8.06,8.06,0,0,1-2.09-3.06,11.65,11.65,0,0,1-.74-4.33v-16h8V114.9a3.18,3.18,0,0,0,.55,2,2.15,2.15,0,0,0,1.82.7,2.19,2.19,0,0,0,1.83-.7,3.2,3.2,0,0,0,.55-2V99.26h8.06l0,16a11.7,11.7,0,0,1-.74,4.34,7.77,7.77,0,0,1-2.11,3.05,9,9,0,0,1-3.29,1.82A14.42,14.42,0,0,1,171.74,125Zm0-4.52c-3.77,0-5.66-1.84-5.66-5.54v-12.7h-1V115a6.43,6.43,0,0,0,1.72,4.84,8.06,8.06,0,0,0,9.85,0,6.44,6.44,0,0,0,1.74-4.85v-12.7h-1V115Q177.39,120.52,171.74,120.52Z"/>
    <path d="M184.69,99.25H199.5v6.59h-6.79v2.79h6.68v6.26h-6.67v2.9h7.05v6.6H184.71ZM197,121.37v-.91h-7.54v-8.26h7.16v-.91h-7.16v-8.15H197v-.91h-8.52v19.11Z"/>
    <path d="M201.36,116.58a13.39,13.39,0,0,0,1.74.41,15.76,15.76,0,0,0,1.71.3,17.88,17.88,0,0,0,1.94.11c1.16,0,1.74-.43,1.74-1.28a1.44,1.44,0,0,0-.53-1,14.76,14.76,0,0,0-1.34-1.13c-.54-.42-1.12-.87-1.73-1.38a11.84,11.84,0,0,1-1.74-1.73,9.05,9.05,0,0,1-1.34-2.2,7.11,7.11,0,0,1-.53-2.81,7.2,7.2,0,0,1,.64-3.13,6.07,6.07,0,0,1,1.77-2.26,7.77,7.77,0,0,1,2.65-1.38,10.86,10.86,0,0,1,3.27-.47,15.78,15.78,0,0,1,1.81.09l1.62.17,1.62.22v7l-.68-.07-.67-.08c-.26,0-.52,0-.8,0l-.56,0a4.08,4.08,0,0,0-.64.1,1.38,1.38,0,0,0-.53.26.66.66,0,0,0-.23.53q0,.3.51.75c.34.3.76.66,1.25,1.06s1,.86,1.62,1.39a11.3,11.3,0,0,1,1.62,1.81,10.52,10.52,0,0,1,1.25,2.3,7.67,7.67,0,0,1,.51,2.86,8.8,8.8,0,0,1-.53,3.11,6.6,6.6,0,0,1-1.63,2.53,7.84,7.84,0,0,1-2.85,1.7,12.26,12.26,0,0,1-4.11.62,22,22,0,0,1-2.65-.13c-.82-.08-1.54-.19-2.17-.31a18,18,0,0,1-2-.46Zm3.17,4.52c.36.07.73.13,1.13.18l1.12.14c.39,0,.78,0,1.18,0a8.3,8.3,0,0,0,2.06-.25,5.11,5.11,0,0,0,1.79-.81,4.11,4.11,0,0,0,1.26-1.45,4.61,4.61,0,0,0,.47-2.17,4.11,4.11,0,0,0-.55-2.07,9.59,9.59,0,0,0-1.39-1.88,23.13,23.13,0,0,0-1.82-1.74c-.64-.55-1.24-1.11-1.81-1.67a10.39,10.39,0,0,1-1.39-1.7A3.14,3.14,0,0,1,206,106a2.58,2.58,0,0,1,.87-2.09,4.24,4.24,0,0,1,2.78-.74c.21,0,.41,0,.63,0l.62,0a4,4,0,0,0,.6,0v-1a3.69,3.69,0,0,1-.56,0l-.59,0c-.21,0-.43,0-.66,0a5.74,5.74,0,0,0-3.35.92,3.29,3.29,0,0,0-1.32,2.89,3.8,3.8,0,0,0,.55,2,10.18,10.18,0,0,0,1.39,1.81c.57.59,1.17,1.16,1.81,1.71s1.25,1.11,1.82,1.68a9.2,9.2,0,0,1,1.39,1.75,3.53,3.53,0,0,1,.55,1.88,3.29,3.29,0,0,1-1.22,2.76,5.47,5.47,0,0,1-3.38.94,12.85,12.85,0,0,1-2.33-.19c-.38,0-.75-.11-1.1-.18Z"/>
    <path d="M219,124.37l0-25.15h7a22.94,22.94,0,0,1,6.31.78,12.75,12.75,0,0,1,4.68,2.37,10.2,10.2,0,0,1,2.9,3.94,15.28,15.28,0,0,1,0,10.9,10.2,10.2,0,0,1-2.9,3.94,12.89,12.89,0,0,1-4.67,2.39,22.14,22.14,0,0,1-6.31.82Zm3.77-3H226q5.51,0,8.31-2.51a10.26,10.26,0,0,0,0-14.12q-2.81-2.47-8.31-2.48h-3.21Zm1-.91v-17.3H226q4.78,0,7.45,2.16c1.77,1.44,2.66,3.6,2.66,6.46s-.88,5-2.65,6.49-4.26,2.19-7.45,2.19ZM227,117.2a6.49,6.49,0,0,0,4.37-1.35,6.16,6.16,0,0,0,0-8.16,6.54,6.54,0,0,0-4.37-1.31Z"/>
    <path d="M250.39,99.2h6L266,124.33h-7.91l-.83-2.26h-7.62l-.83,2.26h-7.91Zm-3.9,22.13.72-1.89h12.44l.71,1.89h1.06l-7.29-19.11H252.7l-7.27,19.12Zm6.92-18.22,5.9,15.42H247.54Zm1.71,13.42-1.7-4.41-1.69,4.42Z"/>
    <path d="M267.56,113.51l-7.82-14.32h8.94l2.9,5.32,2.86-5.32h8.94l-7.79,14.33v10.82h-8Zm4.53,7.8v-9l5.5-10.11h-1.17l-4.82,8.94-4.87-8.93h-1.13l5.47,10.1v9Z"/>
    <path d="M164.36,131.46l19.65,0v8.75h-9v3.7h8.85v8.3H175v3.85h9.35v8.75l-20,0Zm16.32,29.34v-1.2h-10V148.66h9.5v-1.2h-9.5V136.66h10v-1.2h-11.3l0,25.35Z"/>
    <path d="M196.26,131.44l5.66,14.49,5.69-14.5h11.65l-13,33.36h-8.65l-13-33.34Zm6.22,29.34,9.88-25.36H211l-9,23.06-9-23h-1.4l9.92,25.34Z"/>
    <path d="M220,131.42l19.65,0v8.75h-9v3.7h8.85v8.3h-8.85V156H240v8.75l-20,0Zm16.32,29.33v-1.2h-10V148.61h9.5v-1.2h-9.5v-10.8h10v-1.2H225l0,25.35Z"/>
    <path d="M243,131.4h11.5a19.7,19.7,0,0,1,5.92.85,13.7,13.7,0,0,1,4.73,2.49,11.66,11.66,0,0,1,3.13,4.07,13.14,13.14,0,0,1,1.12,5.58,11.4,11.4,0,0,1-.69,4.25,13,13,0,0,1-1.55,2.9,10.88,10.88,0,0,1-2.25,2.2l6.26,11h-12.5l-5-8.45v8.45H243Zm10.41,21.74a17.69,17.69,0,0,0,3.8-.4l4.76,8h1.55l-5-8.39a9.45,9.45,0,0,0,4.3-2.93,7.88,7.88,0,0,0,1.59-5.13,8.27,8.27,0,0,0-.85-3.85,8.09,8.09,0,0,0-2.33-2.77,10.51,10.51,0,0,0-3.47-1.7,15.89,15.89,0,0,0-4.35-.57H248l0,25.35h1.3v-7.6Zm-4.1-1.2V136.59h4.1a11.34,11.34,0,0,1,7.13,2,6.83,6.83,0,0,1,2.58,5.69,6.73,6.73,0,0,1-2.58,5.68,11.41,11.41,0,0,1-7.12,2Zm4.35-4.15h.55a5.81,5.81,0,0,0,3.22-.85,3.74,3.74,0,0,0,0-5.7,5.85,5.85,0,0,0-3.23-.85h-.55Z"/>
    <path d="M279.77,150.37l-10.37-19h11.85l3.86,7,3.79-7.06h11.85l-10.33,19v14.35H279.78Zm6,10.35V148.77l7.29-13.41h-1.55l-6.39,11.86-6.46-11.85h-1.5l7.26,13.4v11.95Z"/>
    <path d="M301.53,164.7l0-33.35h9.25a30.17,30.17,0,0,1,8.38,1,16.73,16.73,0,0,1,6.2,3.15,13.53,13.53,0,0,1,3.86,5.22,20.36,20.36,0,0,1,0,14.45,13.69,13.69,0,0,1-3.85,5.23,17.07,17.07,0,0,1-6.2,3.18,30.45,30.45,0,0,1-8.37,1.08Zm5-4h4.25q7.29,0,11-3.34t3.72-9.37q0-6.06-3.74-9.35t-11-3.29h-4.25Zm1.3-1.2,0-22.95h2.95q6.35,0,9.88,2.86t3.53,8.58q0,5.7-3.52,8.6t-9.87,2.91Zm4.34-4.3a8.67,8.67,0,0,0,5.8-1.78q2.05-1.78,2-5.43t-2.06-5.4a8.66,8.66,0,0,0-5.8-1.74Z"/>
    <path d="M343.15,131.32h8l12.68,33.34h-10.5l-1.1-3h-10.1l-1.1,3h-10.5ZM338,160.68l.94-2.5,16.5,0,1,2.5h1.4l-9.67-25.34h-1.9l-9.63,25.36Zm9.18-24.16L355,157h-15.6Zm2.26,17.8-2.25-5.85-2.25,5.85Z"/>
    <path d="M365.92,150.3l-10.37-19H367.4l3.86,7,3.79-7H386.9l-10.33,19v14.35H365.93Zm6,10.35v-12l7.29-13.41h-1.55l-6.39,11.85-6.46-11.84h-1.5l7.26,13.39v12Z"/>
  </g>
  <polygon class="cls-2" points="287.85 94.53 139.61 132.29 139.16 130.43 287.39 92.67 287.85 94.53"/>
</svg>
